# xmcd CD database file
#
# Track frame offsets:
#	150
#	24002
#	40500
#	63372
#	86507
#	106482
#	126915
#	149992
#	168707
#	186400
#	208510
#
# Disc length: 2955 seconds
#
# Revision: 0
# Processed by: cddbd v1.5.1PL0 Copyright (c) Steve Scherf et al.
# Submitted via: CDex 1.51
#
DISCID=9c0b890b
DTITLE=川島なお美 - TOKYOアプローズ
DYEAR=1900
DGENRE=Pop
TTITLE0=Welcome to TOKIO
TTITLE1=BE BOP CRAZY
TTITLE2="Fall in love"には間に合わない
TTITLE3=恋人達のパニック
TTITLE4=Tokio Princess Hotel
TTITLE5=Bye bye Yellow cab
TTITLE6=淑女は5時まで
TTITLE7=二十五歳(ヴァンサンカン)
TTITLE8=鎖の切れた Juliet
TTITLE9=APPLAUSE
TTITLE10=Replise〜彼(TOKIO)
EXTD=
EXTT0=
EXTT1=
EXTT2=
EXTT3=
EXTT4=
EXTT5=
EXTT6=
EXTT7=
EXTT8=
EXTT9=
EXTT10=
PLAYORDER=
